<svg version="1.1" xmlns="http://www.w3.org/2000/svg" viewBox="0 0 800 300" xmlns:xlink="http://www.w3.org/1999/xlink">
    <defs>
        <style type="text/css">
            @import url('https://fonts.googleapis.com/css?family=Open+Sans:800');
        </style>
    </defs>
    <rect fill="none" width="100%" height="100%" />
    <g id="back">
        <polygon id="back-drop" fill="#4c2f43" points="100,0 100,280 400,300 700,280 700,0"/>
        <polygon id="back-drop-stroke" fill="none" stroke="#F5C441" stroke-width="4" points="110,10 110,270 400,290 690,270 690,10"/>
         </g>
    <g id="ribbon" transform="translate(0,25)">
        <polygon id="ribbon-left-outer" fill="#344C2F" points="0,25 25,150 0,235 100,235 100,25" />
        <polygon id="ribbon-right-outer" fill="#344C2F" points="700,25 700,235 800,235 775,150 800,25" />
        <polygon id="ribbon-left-outer-shadow" fill="black" points="100,230 40,200 40,25 100,25" style="opacity: 0.2;" />
        <polygon id="ribbon-right-outer-shadow" fill="black" points="700,230 760,200 760,25 700,25" style="opacity: 0.2;"/>
        <polygon id="ribbon-left-inner" fill="black" points="50,200 100,230 100,200" style="opacity: 0.4;" />
        <polygon id="ribbon-right-inner" fill="black" points="750,200 700,230 700,200" style="opacity: 0.4;" />
        <polygon id="ribbon-inner-top-shadow" fill="black" points="50,200 100,205 700,205 750,200" style="opacity: 0.2;"/>
        <polygon id="ribbon-left-inner-shadow" fill="black" points="100,235 95,200 100,200" style="opacity: 0.2;"/>
        <polygon id="ribbon-right-inner-shadow" fill="black" points="700,235 705,200 700,200" style="opacity: 0.2;"/>
        <rect id="ribbon-middle" fill="#2F4D39" width="700" height="200" x="50" y="0" />
        <rect id="ribbon-middle-stroke" stroke="#F5C441" stroke-width="4" fill="none" width="680" height="180" x="60" y="10" />
        <image x="250" y="-50" width="300" height="300" xlink:href="../assets/favorit.svg" />
   </g>
</svg>
