<svg xmlns="http://www.w3.org/2000/svg" width="595" height="842" viewBox="0 0 595 842">
  <g fill="none" fill-rule="evenodd">
    <circle cx="297.5" cy="421.5" r="207.5" fill="#2F4D39" stroke="#F5C441" stroke-width="5"/>
    <g fill="#F5C441" transform="translate(151 313)">
      <path fill-rule="nonzero" d="M51.3951008 150.921875L51.3951008 23.5390625 50.4576008 23.5390625 16.2890625 48.6311325C12.890625 51.09207 10.4296875 52.02957 7.8515625 52.02957 3.515625 52.02957 0 48.3967575 0 43.9436325 0 40.545195 2.2265625 37.3811325 6.9140625 33.982695L42.7232258 7.3671875C50.1060383 1.859375 54.2076008.1015625 58.7779133.1015625 66.2779133.1015625 71.5513508 5.609375 71.5513508 13.578125L65.0273405 149.295381C65.0273405 156.443818 55.2611371 160.966785 48.9330121 160.966785 42.7220746 160.966785 51.3951008 157.953125 51.3951008 150.921875zM51.5267065 17.1134428C51.5267065 10.0821928 56.4446148 1.49289634 62.7727398 1.49289634 69.1008648 1.49289634 71.5006808 9.62174748 71.5006808 16.6529975L71.9216303 119.645168C71.9216303 149.996731 66.7969219 162.222132 42.4616795 163.282266 26.3229632 163.98533 18.0582707 157.965481 9.7379582 149.293606 4.3473332 143.668606 1.0660832 136.637356 1.0660832 130.309231 1.0660832 124.215481 4.3473332 120.465481 9.6207707 120.465481 13.7223332 120.465481 15.9488957 122.457668 18.9957707 128.434231 22.6475216 133.977967 24.3294888 138.291079 28.6331293 141.369202 31.575055 143.473376 36.2331946 145.545652 41.641367 144.883829 46.2616131 144.318428 48.0696761 142.690812 49.3894703 140.156289 51.232539 136.616872 51.4796005 130.922242 51.4138178 120.465481L51.5267065 17.1134428zM141.579264 151.820313L141.579264 24.4375 140.641764 24.4375 106.473226 49.52957C103.074788 51.9905075 100.613851 52.9280075 98.0357258 52.9280075 93.6997883 52.9280075 90.1841633 49.295195 90.1841633 44.84207 90.1841633 41.4436325 92.4107258 38.27957 97.0982258 34.8811325L132.907389 8.265625C140.290202 2.7578125 144.391764 1 148.962077 1 156.462077 1 161.735514 6.5078125 161.735514 14.4765625L155.211504 150.193818C155.211504 157.342256 145.4453 161.865222 139.117175 161.865222 132.906238 161.865222 141.579264 158.851563 141.579264 151.820313zM141.71087 18.0118803C141.71087 10.9806303 146.628778 2.39133384 152.956903 2.39133384 159.285028 2.39133384 161.684844 10.520185 161.684844 17.551435L162.105794 120.543606C162.105794 150.895168 156.981085 163.120569 132.645843 164.180704 116.507126 164.883767 108.242434 158.863918 99.9221215 150.192043 94.5314965 144.567043 91.2502465 137.535793 91.2502465 131.207668 91.2502465 125.113918 94.5314965 121.363918 99.804934 121.363918 103.906497 121.363918 106.133059 123.356106 109.179934 129.332668 112.831685 134.876405 114.513652 139.189517 118.817293 142.26764 121.759218 144.371814 126.417358 146.444089 131.82553 145.782266 136.445776 145.216866 138.253839 143.58925 139.573634 141.054726 141.416702 137.51531 141.663764 131.82068 141.597981 121.363918L141.71087 18.0118803zM200.815837 78.8508929L200.815837 84.2642857C200.815837 122.61875 214.590756 146 236.815837 146 259.040917 146 272.815837 122.61875 272.815837 84.2642857L272.815837 78.8508929C272.815837 40.4964286 258.925161 17 236.700081 17 214.590756 17 200.815837 40.4964286 200.815837 78.8508929zM180.815837 85.054111L180.815837 79.2916374C180.815837 31.5783556 201.231903 0 236.873509 0 272.515116 0 292.815837 31.5783556 292.815837 79.2916374L292.815837 85.054111C292.815837 132.652143 272.399771 164 236.758164 164 201.231903 164 180.815837 132.767393 180.815837 85.054111z" transform="translate(.184 52)"/>
      <text font-family="SFCompactRounded-Regular, SF Compact Rounded" font-size="35" letter-spacing="-.84">
        <tspan x="0" y="33">110 Jahre Jäger 2019</tspan>
      </text>
    </g>
  </g>
</svg>
